<svg aria-roledescription="flowchart-v2" role="graphics-document document" viewBox="-33 -8 1309.021484375 1129.5850830078125" height="1129.5850830078125" xmlns="http://www.w3.org/2000/svg" width="1309.021484375" id="atlas12"><style>#atlas12{font-family:Microsoft YaHei,Arial,sans-serif;font-size:16px;fill:#202722;}#atlas12 .error-icon{fill:#faf4ec;}#atlas12 .error-text{fill:#050b13;stroke:#050b13;}#atlas12 .edge-thickness-normal{stroke-width:2px;}#atlas12 .edge-thickness-thick{stroke-width:3.5px;}#atlas12 .edge-pattern-solid{stroke-dasharray:0;}#atlas12 .edge-pattern-dashed{stroke-dasharray:3;}#atlas12 .edge-pattern-dotted{stroke-dasharray:2;}#atlas12 .marker{fill:#62716d;stroke:#62716d;}#atlas12 .marker.cross{stroke:#62716d;}#atlas12 svg{font-family:Microsoft YaHei,Arial,sans-serif;font-size:16px;}#atlas12 .label{font-family:Microsoft YaHei,Arial,sans-serif;color:#202722;}#atlas12 .cluster-label text{fill:#050b13;}#atlas12 .cluster-label span,#atlas12 p{color:#050b13;}#atlas12 .label text,#atlas12 span,#atlas12 p{fill:#202722;color:#202722;}#atlas12 .node rect,#atlas12 .node circle,#atlas12 .node ellipse,#atlas12 .node polygon,#atlas12 .node path{fill:#e8f2ee;stroke:#628775;stroke-width:1px;}#atlas12 .flowchart-label text{text-anchor:middle;}#atlas12 .node .katex path{fill:#000;stroke:#000;stroke-width:1px;}#atlas12 .node .label{text-align:center;}#atlas12 .node.clickable{cursor:pointer;}#atlas12 .arrowheadPath{fill:#0b0b0b;}#atlas12 .edgePath .path{stroke:#62716d;stroke-width:2.0px;}#atlas12 .flowchart-link{stroke:#62716d;fill:none;}#atlas12 .edgeLabel{background-color:#ffffff;text-align:center;}#atlas12 .edgeLabel rect{opacity:0.5;background-color:#ffffff;fill:#ffffff;}#atlas12 .labelBkg{background-color:rgba(255, 255, 255, 0.5);}#atlas12 .cluster rect{fill:#f7f9f8;stroke:#bccbc3;stroke-width:1px;}#atlas12 .cluster text{fill:#050b13;}#atlas12 .cluster span,#atlas12 p{color:#050b13;}#atlas12 div.mermaidTooltip{position:absolute;text-align:center;max-width:200px;padding:2px;font-family:Microsoft YaHei,Arial,sans-serif;font-size:12px;background:#faf4ec;border:1px solid hsl(34.2857142857, 18.3333333333%, 85.2941176471%);border-radius:2px;pointer-events:none;z-index:100;}#atlas12 .flowchartTitleText{text-anchor:middle;font-size:18px;fill:#202722;}#atlas12 :root{--mermaid-font-family:"trebuchet ms",verdana,arial,sans-serif;}</style><g><marker orient="auto" markerHeight="12" markerWidth="12" markerUnits="userSpaceOnUse" refY="5" refX="6" viewBox="0 0 10 10" class="marker flowchart" id="atlas12_flowchart-pointEnd"><path style="stroke-width: 1; stroke-dasharray: 1, 0;" class="arrowMarkerPath" d="M 0 0 L 10 5 L 0 10 z"></path></marker><marker orient="auto" markerHeight="12" markerWidth="12" markerUnits="userSpaceOnUse" refY="5" refX="4.5" viewBox="0 0 10 10" class="marker flowchart" id="atlas12_flowchart-pointStart"><path style="stroke-width: 1; stroke-dasharray: 1, 0;" class="arrowMarkerPath" d="M 0 5 L 10 10 L 10 0 z"></path></marker><marker orient="auto" markerHeight="11" markerWidth="11" markerUnits="userSpaceOnUse" refY="5" refX="11" viewBox="0 0 10 10" class="marker flowchart" id="atlas12_flowchart-circleEnd"><circle style="stroke-width: 1; stroke-dasharray: 1, 0;" class="arrowMarkerPath" r="5" cy="5" cx="5"></circle></marker><marker orient="auto" markerHeight="11" markerWidth="11" markerUnits="userSpaceOnUse" refY="5" refX="-1" viewBox="0 0 10 10" class="marker flowchart" id="atlas12_flowchart-circleStart"><circle style="stroke-width: 1; stroke-dasharray: 1, 0;" class="arrowMarkerPath" r="5" cy="5" cx="5"></circle></marker><marker orient="auto" markerHeight="11" markerWidth="11" markerUnits="userSpaceOnUse" refY="5.2" refX="12" viewBox="0 0 11 11" class="marker cross flowchart" id="atlas12_flowchart-crossEnd"><path style="stroke-width: 2; stroke-dasharray: 1, 0;" class="arrowMarkerPath" d="M 1,1 l 9,9 M 10,1 l -9,9"></path></marker><marker orient="auto" markerHeight="11" markerWidth="11" markerUnits="userSpaceOnUse" refY="5.2" refX="-1" viewBox="0 0 11 11" class="marker cross flowchart" id="atlas12_flowchart-crossStart"><path style="stroke-width: 2; stroke-dasharray: 1, 0;" class="arrowMarkerPath" d="M 1,1 l 9,9 M 10,1 l -9,9"></path></marker><g class="root"><g class="clusters"></g><g class="edgePaths"><path marker-end="url(#atlas12_flowchart-pointEnd)" style="fill:none;" class="edge-thickness-normal edge-pattern-solid flowchart-link LS-UI LE-Operation" id="L-UI-Operation-0" d="M486.789,52L486.789,76L486.789,94.7"></path><path marker-end="url(#atlas12_flowchart-pointEnd)" style="fill:none;" class="edge-thickness-normal edge-pattern-solid flowchart-link LS-Operation LE-FS" id="L-Operation-FS-0" d="M368.828,143.87L156.732,176L156.732,194.7"></path><path marker-end="url(#atlas12_flowchart-pointEnd)" style="fill:none;" class="edge-thickness-normal edge-pattern-solid flowchart-link LS-Operation LE-Projection" id="L-Operation-Projection-0" d="M368.828,137.524L-25,176L-25,218L-25,260L-25,310L-25,370.5L-25,431L-25,481L-25,552.019L-25,623.037L-25,673.037L-25,723.037L-25,793.311L-25,874.085L87.379,912.432"></path><path marker-end="url(#atlas12_flowchart-pointEnd)" style="fill:none;" class="edge-thickness-normal edge-pattern-solid flowchart-link LS-Operation LE-Manifest" id="L-Operation-Manifest-0" d="M604.75,144.714L801.953,176L801.953,218L801.953,260L801.953,310L801.953,370.5L801.953,431L801.953,481L801.953,552.019L801.953,623.037L801.953,673.037L801.953,723.037L801.953,793.311L801.953,874.085L801.953,942.585L801.953,1011.085L876.096,1043.464"></path><path marker-end="url(#atlas12_flowchart-pointEnd)" style="fill:none;" class="edge-thickness-normal edge-pattern-solid flowchart-link LS-Operation LE-Markers" id="L-Operation-Markers-0" d="M548.165,152L604.82,176L604.82,218L604.82,260L604.82,286.7"></path><path marker-end="url(#atlas12_flowchart-pointEnd)" style="fill:none;stroke-width:2px;stroke-dasharray:3;" class="edge-thickness-normal edge-pattern-dotted flowchart-link LS-FS LE-Watcher" id="L-FS-Watcher-0" d="M156.732,236L156.732,260L156.732,278.7"></path><path marker-end="url(#atlas12_flowchart-pointEnd)" style="fill:none;" class="edge-thickness-normal edge-pattern-solid flowchart-link LS-Watcher LE-Queue" id="L-Watcher-Queue-0" d="M156.732,336L156.732,370.5L362.474,408.213"></path><path marker-end="url(#atlas12_flowchart-pointEnd)" style="fill:none;" class="edge-thickness-normal edge-pattern-solid flowchart-link LS-Manifest LE-Recovery" id="L-Manifest-Recovery-0" d="M1072.127,1045.585L1187.111,1011.085L1154.356,964.908"></path><path marker-end="url(#atlas12_flowchart-pointEnd)" style="fill:none;" class="edge-thickness-normal edge-pattern-solid flowchart-link LS-Recovery LE-Queue" id="L-Recovery-Queue-0" d="M1163.878,924.585L1235.016,874.085L1235.016,793.311L1235.016,723.037L1235.016,673.037L1235.016,623.037L1235.016,552.019L1235.016,481L611.179,439.312"></path><path marker-end="url(#atlas12_flowchart-pointEnd)" style="fill:none;" class="edge-thickness-normal edge-pattern-solid flowchart-link LS-Markers LE-Queue" id="L-Markers-Queue-0" d="M604.82,328L604.82,370.5L542.23,402.582"></path><path marker-end="url(#atlas12_flowchart-pointEnd)" style="fill:none;" class="edge-thickness-normal edge-pattern-solid flowchart-link LS-Queue LE-Store" id="L-Queue-Store-0" d="M486.789,457L486.789,481L486.789,499.7"></path><path marker-end="url(#atlas12_flowchart-pointEnd)" style="fill:none;" class="edge-thickness-normal edge-pattern-solid flowchart-link LS-Store LE-Worker" id="L-Store-Worker-0" d="M486.789,599.037L486.789,623.037L486.789,641.737"></path><path marker-end="url(#atlas12_flowchart-pointEnd)" style="fill:none;" class="edge-thickness-normal edge-pattern-solid flowchart-link LS-Worker LE-Rescan" id="L-Worker-Rescan-0" d="M434.627,699.037L386.477,723.037L386.477,770.011"></path><path marker-end="url(#atlas12_flowchart-pointEnd)" style="fill:none;" class="edge-thickness-normal edge-pattern-solid flowchart-link LS-Worker LE-Repair" id="L-Worker-Repair-0" d="M349.945,692.622L137.43,723.037L137.43,762.011"></path><path marker-end="url(#atlas12_flowchart-pointEnd)" style="fill:none;" class="edge-thickness-normal edge-pattern-solid flowchart-link LS-Repair LE-Projection" id="L-Repair-Projection-0" d="M137.43,819.311L137.43,874.085L154.14,903.959"></path><path marker-end="url(#atlas12_flowchart-pointEnd)" style="fill:none;" class="edge-thickness-normal edge-pattern-solid flowchart-link LS-Rescan LE-Projection" id="L-Rescan-Projection-0" d="M386.477,811.311L386.477,874.085L264.138,913.852"></path><path marker-end="url(#atlas12_flowchart-pointEnd)" style="fill:none;" class="edge-thickness-normal edge-pattern-solid flowchart-link LS-Worker LE-Outbox" id="L-Worker-Outbox-0" d="M623.633,685.906L1018.484,723.037L1018.484,741.737"></path><path marker-end="url(#atlas12_flowchart-pointEnd)" style="fill:none;" class="edge-thickness-normal edge-pattern-solid flowchart-link LS-Outbox LE-Recovery" id="L-Outbox-Recovery-0" d="M1018.484,839.585L1018.484,874.085L1102.376,921.958"></path><path marker-end="url(#atlas12_flowchart-pointEnd)" style="fill:none;" class="edge-thickness-normal edge-pattern-solid flowchart-link LS-Recovery LE-Manifest" id="L-Recovery-Manifest-0" d="M1091.298,960.585L958.809,1011.085L958.809,1040.285"></path><path marker-end="url(#atlas12_flowchart-pointEnd)" style="fill:none;stroke-width:2px;stroke-dasharray:3;" class="edge-thickness-normal edge-pattern-dotted flowchart-link LS-Projection LE-Events" id="L-Projection-Events-0" d="M175.746,976.585L175.746,1011.085L175.746,1056.285"></path><path marker-end="url(#atlas12_flowchart-pointEnd)" style="fill:none;" class="edge-thickness-normal edge-pattern-solid flowchart-link LS-Worker LE-Health" id="L-Worker-Health-0" d="M558.876,699.037L625.418,723.037L625.418,762.011"></path></g><g class="edgeLabels"><g class="edgeLabel"><g transform="translate(0, 0)" class="label"><rect height="0" width="0" ry="0" rx="0"></rect><text style=""><tspan class="row" x="0" dy="1em" xml:space="preserve"></tspan></text></g></g><g class="edgeLabel"><g transform="translate(0, 0)" class="label"><rect height="0" width="0" ry="0" rx="0"></rect><text style=""><tspan class="row" x="0" dy="1em" xml:space="preserve"></tspan></text></g></g><g class="edgeLabel"><g transform="translate(0, 0)" class="label"><rect height="0" width="0" ry="0" rx="0"></rect><text style=""><tspan class="row" x="0" dy="1em" xml:space="preserve"></tspan></text></g></g><g class="edgeLabel"><g transform="translate(0, 0)" class="label"><rect height="0" width="0" ry="0" rx="0"></rect><text style=""><tspan class="row" x="0" dy="1em" xml:space="preserve"></tspan></text></g></g><g transform="translate(604.8203125, 218)" class="edgeLabel"><g transform="translate(-48.5, -10.5)" class="label"><rect height="21.00012969970703" width="96.95372772216797" ry="0" rx="0"></rect><text style=""><tspan class="row" x="0" dy="1em" xml:space="preserve">失败补偿意图</tspan></text></g></g><g class="edgeLabel"><g transform="translate(0, 0)" class="label"><rect height="0" width="0" ry="0" rx="0"></rect><text style=""><tspan class="row" x="0" dy="1em" xml:space="preserve"></tspan></text></g></g><g class="edgeLabel"><g transform="translate(0, 0)" class="label"><rect height="0" width="0" ry="0" rx="0"></rect><text style=""><tspan class="row" x="0" dy="1em" xml:space="preserve"></tspan></text></g></g><g class="edgeLabel"><g transform="translate(0, 0)" class="label"><rect height="0" width="0" ry="0" rx="0"></rect><text style=""><tspan class="row" x="0" dy="1em" xml:space="preserve"></tspan></text></g></g><g class="edgeLabel"><g transform="translate(0, 0)" class="label"><rect height="0" width="0" ry="0" rx="0"></rect><text style=""><tspan class="row" x="0" dy="1em" xml:space="preserve"></tspan></text></g></g><g transform="translate(604.8203125, 370.5)" class="edgeLabel"><g transform="translate(-38.58984375, -10.5)" class="label"><rect height="21.00012969970703" width="77.13874053955078" ry="0" rx="0"></rect><text style=""><tspan class="row" x="0" dy="1em" xml:space="preserve">启动 drain</tspan></text></g></g><g class="edgeLabel"><g transform="translate(0, 0)" class="label"><rect height="0" width="0" ry="0" rx="0"></rect><text style=""><tspan class="row" x="0" dy="1em" xml:space="preserve"></tspan></text></g></g><g class="edgeLabel"><g transform="translate(0, 0)" class="label"><rect height="0" width="0" ry="0" rx="0"></rect><text style=""><tspan class="row" x="0" dy="1em" xml:space="preserve"></tspan></text></g></g><g class="edgeLabel"><g transform="translate(0, 0)" class="label"><rect height="0" width="0" ry="0" rx="0"></rect><text style=""><tspan class="row" x="0" dy="1em" xml:space="preserve"></tspan></text></g></g><g class="edgeLabel"><g transform="translate(0, 0)" class="label"><rect height="0" width="0" ry="0" rx="0"></rect><text style=""><tspan class="row" x="0" dy="1em" xml:space="preserve"></tspan></text></g></g><g class="edgeLabel"><g transform="translate(0, 0)" class="label"><rect height="0" width="0" ry="0" rx="0"></rect><text style=""><tspan class="row" x="0" dy="1em" xml:space="preserve"></tspan></text></g></g><g class="edgeLabel"><g transform="translate(0, 0)" class="label"><rect height="0" width="0" ry="0" rx="0"></rect><text style=""><tspan class="row" x="0" dy="1em" xml:space="preserve"></tspan></text></g></g><g class="edgeLabel"><g transform="translate(0, 0)" class="label"><rect height="0" width="0" ry="0" rx="0"></rect><text style=""><tspan class="row" x="0" dy="1em" xml:space="preserve"></tspan></text></g></g><g transform="translate(1018.484375, 874.0850296020508)" class="edgeLabel"><g transform="translate(-57.0625, -10.5)" class="label"><rect height="21.00012969970703" width="114.05931854248047" ry="0" rx="0"></rect><text style=""><tspan class="row" x="0" dy="1em" xml:space="preserve">持久 consumer</tspan></text></g></g><g transform="translate(958.80859375, 1011.0850296020508)" class="edgeLabel"><g transform="translate(-77.1796875, -10.5)" class="label"><rect height="21.00012969970703" width="154.27439880371094" ry="0" rx="0"></rect><text style=""><tspan class="row" x="0" dy="1em" xml:space="preserve">收到所需 ACK 后结算</tspan></text></g></g><g class="edgeLabel"><g transform="translate(0, 0)" class="label"><rect height="0" width="0" ry="0" rx="0"></rect><text style=""><tspan class="row" x="0" dy="1em" xml:space="preserve"></tspan></text></g></g><g class="edgeLabel"><g transform="translate(0, 0)" class="label"><rect height="0" width="0" ry="0" rx="0"></rect><text style=""><tspan class="row" x="0" dy="1em" xml:space="preserve"></tspan></text></g></g></g><g class="nodes"><g transform="translate(486.7890625, 26)" data-id="UI" data-node="true" id="flowchart-UI-759" class="node default default flowchart-label"><rect height="52" width="237.34375" y="-26" x="-118.671875" ry="0" rx="0" style="" class="basic label-container"></rect><g transform="translate(0, -18.5)" style="" class="label"><rect></rect><text style=""><tspan class="row" x="0" dy="1em" xml:space="preserve">文件操作 / 批量重命名 / 导入 /</tspan><tspan class="row" x="0" dy="1em" xml:space="preserve">撤销</tspan></text></g></g><g transform="translate(486.7890625, 126)" data-id="Operation" data-node="true" id="flowchart-Operation-760" class="node default default flowchart-label"><rect height="52" width="235.921875" y="-26" x="-117.9609375" ry="0" rx="0" style="" class="basic label-container"></rect><g transform="translate(0, -18.5)" style="" class="label"><rect></rect><text style=""><tspan class="row" x="0" dy="1em" xml:space="preserve">FileOperationService /</tspan><tspan class="row" x="0" dy="1em" xml:space="preserve">ImportService / UndoService</tspan></text></g></g><g transform="translate(156.732421875, 218)" data-id="FS" data-node="true" id="flowchart-FS-762" class="node default default flowchart-label"><rect height="36" width="145" y="-18" x="-72.5" ry="0" rx="0" style="" class="basic label-container"></rect><g transform="translate(0, -10.5)" style="" class="label"><rect></rect><text style=""><tspan class="row" x="0" dy="1em" xml:space="preserve">文件系统实际变更</tspan></text></g></g><g transform="translate(175.74609375, 942.5850296020508)" data-id="Projection" data-node="true" id="flowchart-Projection-764" class="node default default flowchart-label"><rect height="68" width="166.703125" y="-34" x="-83.3515625" ry="0" rx="0" style="" class="basic label-container"></rect><g transform="translate(0, -26.5)" style="" class="label"><rect></rect><text style=""><tspan class="row" x="0" dy="1em" xml:space="preserve">路径元数据迁移 /</tspan><tspan class="row" x="0" dy="1em" xml:space="preserve">AssetIndexService /</tspan><tspan class="row" x="0" dy="1em" xml:space="preserve">SearchIndexService</tspan></text></g></g><g transform="translate(958.80859375, 1079.5850296020508)" data-id="Manifest" data-node="true" id="flowchart-Manifest-766" class="node default default flowchart-label"><rect height="68" width="232.9921875" y="-34" x="-116.49609375" ry="0" rx="0" style="" class="basic label-container"></rect><g transform="translate(0, -26.5)" style="" class="label"><rect></rect><text style=""><tspan class="row" x="0" dy="1em" xml:space="preserve">ImportManifestStore /</tspan><tspan class="row" x="0" dy="1em" xml:space="preserve">批次与逐项状态 / 指纹 / claim</tspan><tspan class="row" x="0" dy="1em" xml:space="preserve">lease</tspan></text></g></g><g transform="translate(604.8203125, 310)" data-id="Markers" data-node="true" id="flowchart-Markers-768" class="node default default flowchart-label"><rect height="36" width="260.40625" y="-18" x="-130.203125" ry="0" rx="0" style="" class="basic label-container"></rect><g transform="translate(0, -10.5)" style="" class="label"><rect></rect><text style=""><tspan class="row" x="0" dy="1em" xml:space="preserve">pending_projection_repairs 标记</tspan></text></g></g><g transform="translate(156.732421875, 310)" data-id="Watcher" data-node="true" id="flowchart-Watcher-770" class="node default default flowchart-label"><rect height="52" width="198.8046875" y="-26" x="-99.40234375" ry="0" rx="0" style="" class="basic label-container"></rect><g transform="translate(0, -18.5)" style="" class="label"><rect></rect><text style=""><tspan class="row" x="0" dy="1em" xml:space="preserve">LibraryWatcherService /</tspan><tspan class="row" x="0" dy="1em" xml:space="preserve">轮询目录快照</tspan></text></g></g><g transform="translate(486.7890625, 431)" data-id="Queue" data-node="true" id="flowchart-Queue-772" class="node default default flowchart-label"><rect height="52" width="238.203125" y="-26" x="-119.1015625" ry="0" rx="0" style="" class="basic label-container"></rect><g transform="translate(0, -18.5)" style="" class="label"><rect></rect><text style=""><tspan class="row" x="0" dy="1em" xml:space="preserve">ReconciliationQueue / 同进程</tspan><tspan class="row" x="0" dy="1em" xml:space="preserve">Condition + 跨进程轮询</tspan></text></g></g><g transform="translate(1138.521484375, 942.5850296020508)" data-id="Recovery" data-node="true" id="flowchart-Recovery-774" class="node default default flowchart-label"><rect height="36" width="259" y="-18" x="-129.5" ry="0" rx="0" style="" class="basic label-container"></rect><g transform="translate(0, -10.5)" style="" class="label"><rect></rect><text style=""><tspan class="row" x="0" dy="1em" xml:space="preserve">ImportManifestRecoveryService</tspan></text></g></g><g transform="translate(486.7890625, 552.018741607666)" data-id="Store" data-node="true" id="flowchart-Store-780" class="node default default flowchart-label"><path transform="translate(-214.0625,-47.025423728813564)" d="M 0,19.350282485875706 a 214.0625,19.350282485875706 0,0,0 428.125 0 a 214.0625,19.350282485875706 0,0,0 -428.125 0 l 0,55.35028248587571 a 214.0625,19.350282485875706 0,0,0 428.125 0 l 0,-55.35028248587571" style=""></path><g transform="translate(0, -10.5)" style="" class="label"><rect></rect><text style=""><tspan class="row" x="0" dy="1em" xml:space="preserve">SQLiteReconciliationQueueStore / tasks + queue state</tspan></text></g></g><g transform="translate(486.7890625, 673.037483215332)" data-id="Worker" data-node="true" id="flowchart-Worker-782" class="node default default flowchart-label"><rect height="52" width="273.6875" y="-26" x="-136.84375" ry="0" rx="0" style="" class="basic label-container"></rect><g transform="translate(0, -18.5)" style="" class="label"><rect></rect><text style=""><tspan class="row" x="0" dy="1em" xml:space="preserve">AssetIndexReconciliationService /</tspan><tspan class="row" x="0" dy="1em" xml:space="preserve">领取租约 / heartbeat / 有界重试</tspan></text></g></g><g transform="translate(386.4765625, 793.3112564086914)" data-id="Rescan" data-node="true" id="flowchart-Rescan-784" class="node default default flowchart-label"><rect height="36" width="163.234375" y="-18" x="-81.6171875" ry="0" rx="0" style="" class="basic label-container"></rect><g transform="translate(0, -10.5)" style="" class="label"><rect></rect><text style=""><tspan class="row" x="0" dy="1em" xml:space="preserve">资产重扫 / CAS 发布</tspan></text></g></g><g transform="translate(137.4296875, 793.3112564086914)" data-id="Repair" data-node="true" id="flowchart-Repair-786" class="node default default flowchart-label"><rect height="52" width="274.859375" y="-26" x="-137.4296875" ry="0" rx="0" style="" class="basic label-container"></rect><g transform="translate(0, -18.5)" style="" class="label"><rect></rect><text style=""><tspan class="row" x="0" dy="1em" xml:space="preserve">FilesystemProjectionRepairService</tspan><tspan class="row" x="0" dy="1em" xml:space="preserve">/ 意图与实际文件对齐</tspan></text></g></g><g transform="translate(1018.484375, 793.3112564086914)" data-id="Outbox" data-node="true" id="flowchart-Outbox-792" class="node default default flowchart-label"><path transform="translate(-191.53125,-46.27377291179727)" d="M 0,18.849181941198182 a 191.53125,18.849181941198182 0,0,0 383.0625 0 a 191.53125,18.849181941198182 0,0,0 -383.0625 0 l 0,54.84918194119818 a 191.53125,18.849181941198182 0,0,0 383.0625 0 l 0,-54.84918194119818" style=""></path><g transform="translate(0, -10.5)" style="" class="label"><rect></rect><text style=""><tspan class="row" x="0" dy="1em" xml:space="preserve">transition outbox / 顺序投递 / ACK / dead letters</tspan></text></g></g><g transform="translate(175.74609375, 1079.5850296020508)" data-id="Events" data-node="true" id="flowchart-Events-798" class="node default default flowchart-label"><rect height="36" width="244.8125" y="-18" x="-122.40625" ry="0" rx="0" style="" class="basic label-container"></rect><g transform="translate(0, -10.5)" style="" class="label"><rect></rect><text style=""><tspan class="row" x="0" dy="1em" xml:space="preserve">FileSystemChanged / 失效通知</tspan></text></g></g><g transform="translate(625.41796875, 793.3112564086914)" data-id="Health" data-node="true" id="flowchart-Health-800" class="node default default flowchart-label"><rect height="52" width="178.015625" y="-26" x="-89.0078125" ry="0" rx="0" style="" class="basic label-container"></rect><g transform="translate(0, -18.5)" style="" class="label"><rect></rect><text style=""><tspan class="row" x="0" dy="1em" xml:space="preserve">故障状态 / retention /</tspan><tspan class="row" x="0" dy="1em" xml:space="preserve">dead-letter 诊断</tspan></text></g></g></g></g></g></svg>